<?xml version="1.0" encoding="UTF-8"?>
<svg width="153px" height="155px" viewBox="0 0 153 155" version="1.1" xmlns="http://www.w3.org/2000/svg" xmlns:xlink="http://www.w3.org/1999/xlink">
    <title>Group 2</title>
    <defs>
        <rect id="path-1" x="0" y="0" width="153" height="155" rx="35"></rect>
    </defs>
    <g id="Page-1" stroke="none" stroke-width="1" fill="none" fill-rule="evenodd">
        <g id="Group-2">
            <mask id="mask-2" fill="white">
                <use xlink:href="#path-1"></use>
            </mask>
            <g id="Rectangle"></g>
            <g id="freelink" mask="url(#mask-2)">
                <g transform="translate(-2.000000, 0.000000)" id="Group">
                    <g>
                        <g id="p0-link" fill="#000000" fill-rule="nonzero" stroke="#FCFEFD">
                            <path d="M0,0 L28.56,0 C18.13,2.33 8.99,5.98 4.28,16.3 C1.56,22.18 0.77,28.58 0.97,35 C1.04,59.33 0.98,83.67 1,108 C1.43,121.51 -1.24,133.11 6.97,145.02 C13.78,154.91 24.7,157.04 36,157.03 C60,156.96 84,157.02 108,157 C120.57,156.54 134.38,159.19 145.25,151.27 C150.88,147.97 156.53,138.47 156.97,132.02 C157.01,96.78 157.04,61.21 156.95,25.98 C155.34,11.18 143.87,2.08 129.68,0 L158,0 L158,158 L0,158 L0,0 Z" id="p0"></path>
                        </g>
                        <g id="p1-link" transform="translate(0.911333, 0.000000)" fill="#000000" fill-rule="nonzero" stroke="#3DABDD">
                            <path d="M27.6486667,0 L128.768667,0 C142.958667,2.08 154.428667,11.18 156.038667,25.98 C156.128667,61.21 156.097065,96.78 156.058667,132.02 C155.618667,138.47 149.968667,147.97 144.338667,151.27 C133.468667,159.19 119.658667,156.54 107.088667,157 C83.0886667,157.02 59.0886667,156.96 35.0886667,157.03 C23.7886667,157.04 12.8686667,154.91 6.05866668,145.02 C-2.15133332,133.11 0.51866668,121.51 0.0886666796,108 C0.0686666796,83.67 0.12866668,59.33 0.0586666796,35 C-0.14133332,28.58 0.64866668,22.18 3.36866668,16.3 C8.07866668,5.98 17.2186667,2.33 27.6486667,0 Z M42.8586667,41.78 C50.7486667,36.61 63.5086667,39.83 72.4586667,39.33 C76.3486667,37.77 77.2086667,34.78 74.7186667,31.36 C71.4386667,29.03 65.9386667,30.27 62.0886667,29.99 C52.4586667,30.16 43.5486667,28.43 35.9086667,35.81 C28.1886667,44.26 31.9986667,56.17 31.0386667,67 C31.0686667,71.23 30.6786667,75.59 36.0986667,76.03 C41.0186667,75.73 40.8486667,69.59 40.2486667,66.01 C40.1386667,58.62 38.9886667,48.31 42.8586667,41.78 Z M103.988667,41.21 C110.198667,42.28 115.988667,47.19 115.188667,54.01 C115.488667,58.51 112.708667,60.86 110.128667,64.03 C105.278667,69.88 99.4686667,74.67 94.2986667,80.21 C90.5286667,83.76 86.5686667,86 81.1986667,84.88 C77.6386667,84.08 75.1486667,79.91 72.0986667,77.99 C69.0586667,79.19 66.4586667,81.78 64.3986667,84.26 C67.0986667,91.02 75.2386667,95.78 82.2486667,96.75 C93.0886667,96.96 101.738667,90.1 107.998667,81.88 C115.478667,72.36 126.798667,67.88 126.188667,54.01 C127.668667,37.53 109.048667,24.73 94.1886667,32.11 C85.0186667,36.56 77.7286667,46.13 71.2186667,53.77 C75.5786667,53.85 79.6286667,54.68 83.8786667,55.47 C90.3586667,50.52 94.8686667,41.44 103.988667,41.21 Z M74.9686667,72.12 C80.2086667,72.4 82.3486667,81.76 87.1086667,78.03 C89.0686667,76.84 90.9186667,75.02 92.0686667,73.03 C88.1986667,63.27 77.1186667,58.79 67.2386667,61.17 C59.6186667,62.79 56.4486667,69.15 50.6486667,73.54 C45.5486667,77.2 42.4186667,82.36 37.8086667,86.72 C30.5486667,93 27.5886667,105.16 32.3986667,113.69 C36.3686667,122.73 46.3486667,128.14 56.0586667,126.91 C66.2886667,125.92 72.4986667,117.91 79.3386667,111.25 C81.5386667,108.8 85.0886667,106.47 86.1186667,103.28 C81.6086667,103.1 77.6586667,102.69 73.2986667,101.54 C66.6386667,106.41 60.7886667,118.02 51.2186667,115.86 C41.1486667,113.35 38.8886667,101.67 45.3786667,94.28 C51.0786667,88.33 57.0686667,82.64 62.8186667,76.72 C66.0986667,73.4 70.1486667,71.14 74.9686667,72.12 Z M115.728667,111.68 C113.198667,118.3 107.138667,118.12 101.088667,118.04 C94.8886667,118.15 88.5486667,117.6 82.3886667,118.26 C79.0686667,121.82 81.4386667,128.15 87.0586667,127.03 C97.0586667,126 113.558667,130.26 120.408667,121.31 C123.848667,118.1 125.258667,113.65 125.128667,109.02 C124.948667,100.72 125.358667,92.37 124.938667,84.1 C124.108667,79.82 117.068667,79.82 116.238667,84.1 C115.548667,93.2 116.768667,102.64 115.728667,111.68 Z" id="p1"></path>
                        </g>
                        <g id="p2-link" transform="translate(31.833262, 29.905456)" fill="#000000" fill-rule="nonzero" stroke="#FCFEFD">
                            <path d="M31.1667377,0.0845444491 C35.0167377,0.364544449 40.5167377,-0.875455551 43.7967377,1.45454445 C46.2867377,4.87454445 45.4267377,7.86454445 41.5367377,9.42454445 C32.5867377,9.92454445 19.8267377,6.70454445 11.9367377,11.8745444 C8.06673768,18.4045444 9.21673768,28.7145444 9.32673768,36.1045444 C9.92673768,39.6845444 10.0967377,45.8245444 5.17673768,46.1245444 C-0.243262322,45.6845444 0.146737678,41.3245444 0.116737678,37.0945444 C1.07673768,26.2645444 -2.73326232,14.3545444 4.98673768,5.90454445 C12.6267377,-1.47545555 21.5367377,0.254544449 31.1667377,0.0845444491 Z" id="p2"></path>
                        </g>
                        <g id="p3-link" transform="translate(65.310000, 29.971555)" fill="#000000" fill-rule="nonzero" stroke="#FCFEFD">
                            <path d="M61.79,24.0384455 C62.4,37.9084455 51.08,42.3884455 43.6,51.9084455 C37.34,60.1284455 28.69,66.9884455 17.85,66.7784455 C10.84,65.8084455 2.7,61.0484455 0,54.2884455 C2.06,51.8084455 4.66,49.2184455 7.7,48.0184455 C10.75,49.9384455 13.24,54.1084455 16.8,54.9084455 C22.17,56.0284455 26.13,53.7884455 29.9,50.2384455 C35.07,44.6984455 40.88,39.9084455 45.73,34.0584455 C48.31,30.8884455 51.09,28.5384455 50.79,24.0384455 C51.59,17.2184455 45.8,12.3084455 39.59,11.2384455 C30.47,11.4684455 25.96,20.5484455 19.48,25.4984455 C15.23,24.7084455 11.18,23.8784455 6.82,23.7984455 C13.33,16.1584455 20.62,6.58844548 29.79,2.13844548 C44.65,-5.24155452 63.27,7.55844548 61.79,24.0384455 Z" id="p3"></path>
                        </g>
                        <g id="p4-link" transform="translate(30.961454, 60.542209)" fill="#000000" fill-rule="nonzero" stroke="#FCFEFD">
                            <path d="M62.018546,12.4877908 C60.868546,14.4777908 59.018546,16.2977908 57.058546,17.4877908 C52.298546,21.2177908 50.158546,11.8577908 44.918546,11.5777908 C40.098546,10.5977908 36.048546,12.8577908 32.768546,16.1777908 C27.018546,22.0977908 21.028546,27.7877908 15.328546,33.7377908 C8.83854597,41.1277908 11.098546,52.8077908 21.168546,55.3177908 C30.738546,57.4777908 36.588546,45.8677908 43.248546,40.9977908 C47.608546,42.1477908 51.558546,42.5577908 56.068546,42.7377908 C55.038546,45.9277908 51.488546,48.2577908 49.288546,50.7077908 C42.448546,57.3677908 36.238546,65.3777908 26.008546,66.3677908 C16.298546,67.5977908 6.31854597,62.1877908 2.34854597,53.1477908 C-2.46145403,44.6177908 0.498545963,32.4577908 7.75854597,26.1777908 C12.368546,21.8177908 15.498546,16.6577908 20.598546,12.9977908 C26.398546,8.60779078 29.568546,2.24779078 37.188546,0.627790774 C47.068546,-1.75220922 58.148546,2.72779078 62.018546,12.4877908 Z" id="p4"></path>
                        </g>
                        <g id="p5-link" transform="translate(81.780029, 80.890000)" fill="#000000" fill-rule="nonzero" stroke="#FCFEFD">
                            <path d="M44.0699713,3.21 C44.4899713,11.48 44.0799713,19.83 44.2599713,28.13 C44.3899713,32.76 42.9799713,37.21 39.5399713,40.42 C32.6899713,49.37 16.1899713,45.11 6.18997133,46.14 C0.569971331,47.26 -1.80002867,40.93 1.51997133,37.37 C7.67997133,36.71 14.0199713,37.26 20.2199713,37.15 C26.2699713,37.23 32.3299713,37.41 34.8599713,30.79 C35.8999713,21.75 34.6799713,12.31 35.3699713,3.21 C36.1999713,-1.07 43.2399713,-1.07 44.0699713,3.21 Z" id="p5"></path>
                        </g>
                    </g>
                    <g>
                        <g id="p0-link" fill="#FCFEFD" fill-rule="nonzero">
                            <path d="M0,0 L28.56,0 C18.13,2.33 8.99,5.98 4.28,16.3 C1.56,22.18 0.77,28.58 0.97,35 C1.04,59.33 0.98,83.67 1,108 C1.43,121.51 -1.24,133.11 6.97,145.02 C13.78,154.91 24.7,157.04 36,157.03 C60,156.96 84,157.02 108,157 C120.57,156.54 134.38,159.19 145.25,151.27 C150.88,147.97 156.53,138.47 156.97,132.02 C157.01,96.78 157.04,61.21 156.95,25.98 C155.34,11.18 143.87,2.08 129.68,0 L158,0 L158,158 L0,158 L0,0 Z" id="p0"></path>
                        </g>
                        <g id="p1-link" transform="translate(0.911333, 0.000000)" fill="#3DABDD" fill-rule="nonzero">
                            <path d="M27.6486667,0 L128.768667,0 C142.958667,2.08 154.428667,11.18 156.038667,25.98 C156.128667,61.21 156.097065,96.78 156.058667,132.02 C155.618667,138.47 149.968667,147.97 144.338667,151.27 C133.468667,159.19 119.658667,156.54 107.088667,157 C83.0886667,157.02 59.0886667,156.96 35.0886667,157.03 C23.7886667,157.04 12.8686667,154.91 6.05866668,145.02 C-2.15133332,133.11 0.51866668,121.51 0.0886666796,108 C0.0686666796,83.67 0.12866668,59.33 0.0586666796,35 C-0.14133332,28.58 0.64866668,22.18 3.36866668,16.3 C8.07866668,5.98 17.2186667,2.33 27.6486667,0 Z M42.8586667,41.78 C50.7486667,36.61 63.5086667,39.83 72.4586667,39.33 C76.3486667,37.77 77.2086667,34.78 74.7186667,31.36 C71.4386667,29.03 65.9386667,30.27 62.0886667,29.99 C52.4586667,30.16 43.5486667,28.43 35.9086667,35.81 C28.1886667,44.26 31.9986667,56.17 31.0386667,67 C31.0686667,71.23 30.6786667,75.59 36.0986667,76.03 C41.0186667,75.73 40.8486667,69.59 40.2486667,66.01 C40.1386667,58.62 38.9886667,48.31 42.8586667,41.78 Z M103.988667,41.21 C110.198667,42.28 115.988667,47.19 115.188667,54.01 C115.488667,58.51 112.708667,60.86 110.128667,64.03 C105.278667,69.88 99.4686667,74.67 94.2986667,80.21 C90.5286667,83.76 86.5686667,86 81.1986667,84.88 C77.6386667,84.08 75.1486667,79.91 72.0986667,77.99 C69.0586667,79.19 66.4586667,81.78 64.3986667,84.26 C67.0986667,91.02 75.2386667,95.78 82.2486667,96.75 C93.0886667,96.96 101.738667,90.1 107.998667,81.88 C115.478667,72.36 126.798667,67.88 126.188667,54.01 C127.668667,37.53 109.048667,24.73 94.1886667,32.11 C85.0186667,36.56 77.7286667,46.13 71.2186667,53.77 C75.5786667,53.85 79.6286667,54.68 83.8786667,55.47 C90.3586667,50.52 94.8686667,41.44 103.988667,41.21 Z M74.9686667,72.12 C80.2086667,72.4 82.3486667,81.76 87.1086667,78.03 C89.0686667,76.84 90.9186667,75.02 92.0686667,73.03 C88.1986667,63.27 77.1186667,58.79 67.2386667,61.17 C59.6186667,62.79 56.4486667,69.15 50.6486667,73.54 C45.5486667,77.2 42.4186667,82.36 37.8086667,86.72 C30.5486667,93 27.5886667,105.16 32.3986667,113.69 C36.3686667,122.73 46.3486667,128.14 56.0586667,126.91 C66.2886667,125.92 72.4986667,117.91 79.3386667,111.25 C81.5386667,108.8 85.0886667,106.47 86.1186667,103.28 C81.6086667,103.1 77.6586667,102.69 73.2986667,101.54 C66.6386667,106.41 60.7886667,118.02 51.2186667,115.86 C41.1486667,113.35 38.8886667,101.67 45.3786667,94.28 C51.0786667,88.33 57.0686667,82.64 62.8186667,76.72 C66.0986667,73.4 70.1486667,71.14 74.9686667,72.12 Z M115.728667,111.68 C113.198667,118.3 107.138667,118.12 101.088667,118.04 C94.8886667,118.15 88.5486667,117.6 82.3886667,118.26 C79.0686667,121.82 81.4386667,128.15 87.0586667,127.03 C97.0586667,126 113.558667,130.26 120.408667,121.31 C123.848667,118.1 125.258667,113.65 125.128667,109.02 C124.948667,100.72 125.358667,92.37 124.938667,84.1 C124.108667,79.82 117.068667,79.82 116.238667,84.1 C115.548667,93.2 116.768667,102.64 115.728667,111.68 Z" id="p1"></path>
                        </g>
                        <g id="p2-link" transform="translate(31.833262, 29.905456)" fill="#FCFEFD" fill-rule="nonzero">
                            <path d="M31.1667377,0.0845444491 C35.0167377,0.364544449 40.5167377,-0.875455551 43.7967377,1.45454445 C46.2867377,4.87454445 45.4267377,7.86454445 41.5367377,9.42454445 C32.5867377,9.92454445 19.8267377,6.70454445 11.9367377,11.8745444 C8.06673768,18.4045444 9.21673768,28.7145444 9.32673768,36.1045444 C9.92673768,39.6845444 10.0967377,45.8245444 5.17673768,46.1245444 C-0.243262322,45.6845444 0.146737678,41.3245444 0.116737678,37.0945444 C1.07673768,26.2645444 -2.73326232,14.3545444 4.98673768,5.90454445 C12.6267377,-1.47545555 21.5367377,0.254544449 31.1667377,0.0845444491 Z" id="p2"></path>
                        </g>
                        <g id="p3-link" transform="translate(65.310000, 29.971555)" fill="#FCFEFD" fill-rule="nonzero">
                            <path d="M61.79,24.0384455 C62.4,37.9084455 51.08,42.3884455 43.6,51.9084455 C37.34,60.1284455 28.69,66.9884455 17.85,66.7784455 C10.84,65.8084455 2.7,61.0484455 0,54.2884455 C2.06,51.8084455 4.66,49.2184455 7.7,48.0184455 C10.75,49.9384455 13.24,54.1084455 16.8,54.9084455 C22.17,56.0284455 26.13,53.7884455 29.9,50.2384455 C35.07,44.6984455 40.88,39.9084455 45.73,34.0584455 C48.31,30.8884455 51.09,28.5384455 50.79,24.0384455 C51.59,17.2184455 45.8,12.3084455 39.59,11.2384455 C30.47,11.4684455 25.96,20.5484455 19.48,25.4984455 C15.23,24.7084455 11.18,23.8784455 6.82,23.7984455 C13.33,16.1584455 20.62,6.58844548 29.79,2.13844548 C44.65,-5.24155452 63.27,7.55844548 61.79,24.0384455 Z" id="p3"></path>
                        </g>
                        <g id="p4-link" transform="translate(30.961454, 60.542209)" fill="#FCFEFD" fill-rule="nonzero">
                            <path d="M62.018546,12.4877908 C60.868546,14.4777908 59.018546,16.2977908 57.058546,17.4877908 C52.298546,21.2177908 50.158546,11.8577908 44.918546,11.5777908 C40.098546,10.5977908 36.048546,12.8577908 32.768546,16.1777908 C27.018546,22.0977908 21.028546,27.7877908 15.328546,33.7377908 C8.83854597,41.1277908 11.098546,52.8077908 21.168546,55.3177908 C30.738546,57.4777908 36.588546,45.8677908 43.248546,40.9977908 C47.608546,42.1477908 51.558546,42.5577908 56.068546,42.7377908 C55.038546,45.9277908 51.488546,48.2577908 49.288546,50.7077908 C42.448546,57.3677908 36.238546,65.3777908 26.008546,66.3677908 C16.298546,67.5977908 6.31854597,62.1877908 2.34854597,53.1477908 C-2.46145403,44.6177908 0.498545963,32.4577908 7.75854597,26.1777908 C12.368546,21.8177908 15.498546,16.6577908 20.598546,12.9977908 C26.398546,8.60779078 29.568546,2.24779078 37.188546,0.627790774 C47.068546,-1.75220922 58.148546,2.72779078 62.018546,12.4877908 Z" id="p4"></path>
                        </g>
                        <g id="p5-link" transform="translate(81.780029, 80.890000)" fill="#FCFEFD" fill-rule="nonzero">
                            <path d="M44.0699713,3.21 C44.4899713,11.48 44.0799713,19.83 44.2599713,28.13 C44.3899713,32.76 42.9799713,37.21 39.5399713,40.42 C32.6899713,49.37 16.1899713,45.11 6.18997133,46.14 C0.569971331,47.26 -1.80002867,40.93 1.51997133,37.37 C7.67997133,36.71 14.0199713,37.26 20.2199713,37.15 C26.2699713,37.23 32.3299713,37.41 34.8599713,30.79 C35.8999713,21.75 34.6799713,12.31 35.3699713,3.21 C36.1999713,-1.07 43.2399713,-1.07 44.0699713,3.21 Z" id="p5"></path>
                        </g>
                    </g>
                </g>
            </g>
        </g>
    </g>
</svg>